<?xml version="1.0" encoding="UTF-8" standalone="no"?>
<!-- Created with Inkscape (http://www.inkscape.org/) -->

<svg
   width="256"
   height="256"
   viewBox="0 0 67.733332 67.733333"
   version="1.1"
   id="svg4872"
   inkscape:version="1.2.2 (b0a8486, 2022-12-01)"
   sodipodi:docname="many-gears.svg"
   inkscape:export-filename="many-gears.png"
   inkscape:export-xdpi="192"
   inkscape:export-ydpi="192"
   xmlns:inkscape="http://www.inkscape.org/namespaces/inkscape"
   xmlns:sodipodi="http://sodipodi.sourceforge.net/DTD/sodipodi-0.dtd"
   xmlns:xlink="http://www.w3.org/1999/xlink"
   xmlns="http://www.w3.org/2000/svg"
   xmlns:svg="http://www.w3.org/2000/svg">
  <sodipodi:namedview
     id="namedview4874"
     pagecolor="#008866"
     bordercolor="#000000"
     borderopacity="0.25"
     inkscape:showpageshadow="2"
     inkscape:pageopacity="0"
     inkscape:pagecheckerboard="0"
     inkscape:deskcolor="#d1d1d1"
     inkscape:document-units="mm"
     showgrid="false"
     inkscape:zoom="1.3074301"
     inkscape:cx="106.31544"
     inkscape:cy="151.82457"
     inkscape:window-width="1280"
     inkscape:window-height="747"
     inkscape:window-x="0"
     inkscape:window-y="25"
     inkscape:window-maximized="0"
     inkscape:current-layer="layer1" />
  <defs
     id="defs4869" />
  <g
     inkscape:label="Layer 1"
     inkscape:groupmode="layer"
     id="layer1">
    <g
       id="g5372"
       transform="translate(-49.990886,-19.848023)"
       style="fill:#17705e;fill-opacity:1">
      <path
         id="path5291"
         style="font-variation-settings:normal;opacity:1;vector-effect:none;fill:#17705e;fill-opacity:1;stroke-width:0.499998;stroke-linecap:round;stroke-linejoin:round;stroke-miterlimit:4;stroke-dasharray:none;stroke-dashoffset:0;stroke-opacity:1;-inkscape-stroke:none;stop-color:#000000;stop-opacity:1"
         d="m 20.365982,51.591906 a 12.517437,12.517437 0 0 0 -0.352245,0.346216 l 1.337254,1.749272 a 10.331081,10.331081 0 0 0 -0.289957,0.321079 l -1.859662,-1.192879 a 12.517437,12.517437 0 0 0 -0.603568,0.780521 l 1.625399,1.494781 a 10.331081,10.331081 0 0 0 -0.233201,0.364489 l -2.037706,-0.851548 a 12.517437,12.517437 0 0 0 -0.456586,0.874645 l 1.861041,1.190246 a 10.331081,10.331081 0 0 0 -0.170573,0.397754 l -2.147795,-0.483173 a 12.517437,12.517437 0 0 0 -0.299338,0.940846 l 2.032553,0.846275 a 10.331081,10.331081 0 0 0 -0.0905,0.423015 L 16.474256,58.69017 a 12.517437,12.517437 0 0 0 -0.132458,0.977667 l 2.155035,0.482063 a 10.331081,10.331081 0 0 0 -0.01993,0.431842 l -2.190273,0.281543 a 12.517437,12.517437 0 0 0 0.04185,0.985706 l 2.206979,0.100419 a 10.331081,10.331081 0 0 0 0.05116,0.42955 l -2.101841,0.655506 a 12.517437,12.517437 0 0 0 0.211408,0.964408 l 2.18317,-0.283306 a 10.331081,10.331081 0 0 0 0.133221,0.411771 l -1.962951,1.013958 a 12.517437,12.517437 0 0 0 0.374285,0.912812 l 2.107471,-0.660255 a 10.331081,10.331081 0 0 0 0.19864,0.384413 l -1.756356,1.338894 a 12.517437,12.517437 0 0 0 0.52931,0.832622 L 20.4646,66.933244 a 10.331081,10.331081 0 0 0 0.25916,0.346417 l -1.492673,1.618668 a 12.517437,12.517437 0 0 0 0.31885,0.377201 12.517437,12.517437 0 0 0 0.346229,0.352228 l 1.749266,-1.337248 a 10.331081,10.331081 0 0 0 0.321079,0.289972 l -1.192885,1.859663 a 12.517437,12.517437 0 0 0 0.780331,0.603739 l 1.494969,-1.625573 a 10.331081,10.331081 0 0 0 0.364489,0.233203 l -0.851545,2.037704 a 12.517437,12.517437 0 0 0 0.874453,0.456761 l 1.190442,-1.861221 a 10.331081,10.331081 0 0 0 0.397749,0.170574 l -0.483176,2.147796 a 12.517437,12.517437 0 0 0 0.940854,0.299346 l 0.846276,-2.032561 a 10.331081,10.331081 0 0 0 0.423015,0.09052 l -0.103275,2.206835 a 12.517437,12.517437 0 0 0 0.97785,0.13229 l 0.481883,-2.154865 a 10.331081,10.331081 0 0 0 0.432198,0.01993 l 0.281354,2.190446 a 12.517437,12.517437 0 0 0 0.985712,-0.04184 l 0.100407,-2.206974 a 10.331081,10.331081 0 0 0 0.429376,-0.05136 l 0.655489,2.10186 a 12.517437,12.517437 0 0 0 0.964582,-0.211229 l -0.283477,-2.183353 a 10.331081,10.331081 0 0 0 0.411775,-0.133219 l 1.01396,1.962945 a 12.517437,12.517437 0 0 0 0.912803,-0.374287 l -0.660255,-2.107466 a 10.331081,10.331081 0 0 0 0.384419,-0.198639 l 1.3389,1.756343 a 12.517437,12.517437 0 0 0 0.832617,-0.529305 l -1.016538,-1.961622 a 10.331081,10.331081 0 0 0 0.346423,-0.259157 l 1.618668,1.492672 a 12.517437,12.517437 0 0 0 0.377191,-0.318857 12.517437,12.517437 0 0 0 0.352244,-0.346223 L 36.24854,67.996097 a 10.331081,10.331081 0 0 0 0.289957,-0.321085 l 1.859666,1.192886 a 12.517437,12.517437 0 0 0 0.60374,-0.780333 L 37.37632,66.59258 a 10.331081,10.331081 0 0 0 0.233199,-0.364489 l 2.037698,0.851547 a 12.517437,12.517437 0 0 0 0.456766,-0.87445 L 38.24277,65.014747 a 10.331081,10.331081 0 0 0 0.170573,-0.397754 l 2.147966,0.483356 a 12.517437,12.517437 0 0 0 0.29917,-0.941028 L 38.82792,63.313039 a 10.331081,10.331081 0 0 0 0.09068,-0.42282 l 2.206845,0.103275 A 12.517437,12.517437 0 0 0 41.2579,62.015821 l -2.155224,-0.481898 a 10.331081,10.331081 0 0 0 0.01993,-0.432195 l 2.19044,-0.281355 a 12.517437,12.517437 0 0 0 -0.04203,-0.985905 l -2.206973,-0.100406 a 10.331081,10.331081 0 0 0 -0.05119,-0.429557 l 2.101866,-0.655482 a 12.517437,12.517437 0 0 0 -0.211426,-0.964426 l -2.183166,0.283313 a 10.331081,10.331081 0 0 0 -0.133216,-0.411771 l 1.962942,-1.013953 A 12.517437,12.517437 0 0 0 40.175581,55.62938 l -2.10747,0.660261 a 10.331081,10.331081 0 0 0 -0.19864,-0.384418 l 1.756347,-1.3389 a 12.517437,12.517437 0 0 0 -0.529304,-0.832622 l -1.961626,1.016545 a 10.331081,10.331081 0 0 0 -0.259155,-0.346429 l 1.492673,-1.618673 a 12.517437,12.517437 0 0 0 -0.318855,-0.37719 12.517437,12.517437 0 0 0 -0.340238,-0.357018 l -1.753541,1.340469 a 10.331081,10.331081 0 0 0 -0.319065,-0.294203 l 1.191892,-1.857737 a 12.517437,12.517437 0 0 0 -0.780944,-0.602146 l -1.494388,1.624698 A 10.331081,10.331081 0 0 0 34.18814,52.026986 l 0.851332,-2.036816 a 12.517437,12.517437 0 0 0 -0.873554,-0.456897 l -1.189468,1.859653 a 10.331081,10.331081 0 0 0 -0.40097,-0.166955 l 0.484531,-2.153849 a 12.517437,12.517437 0 0 0 -0.939434,-0.298917 l -0.848316,2.037857 a 10.331081,10.331081 0 0 0 -0.423736,-0.09431 L 30.951716,48.5117 a 12.517437,12.517437 0 0 0 -0.97735,-0.131374 l -0.481678,2.154343 a 10.331081,10.331081 0 0 0 -0.433638,-0.02004 l -0.281043,-2.189354 a 12.517437,12.517437 0 0 0 -0.985473,0.04061 l -0.100322,2.205181 a 10.331081,10.331081 0 0 0 -0.430627,0.05489 l -0.657026,-2.107318 a 12.517437,12.517437 0 0 0 -0.963154,0.211288 l 0.284293,2.189147 a 10.331081,10.331081 0 0 0 -0.414646,0.129311 l -1.01314,-1.961287 a 12.517437,12.517437 0 0 0 -0.911747,0.374691 l 0.65994,2.106367 a 10.331081,10.331081 0 0 0 -0.385212,0.200408 l -1.338214,-1.755595 a 12.517437,12.517437 0 0 0 -0.833086,0.527664 l 1.015548,1.959783 a 10.331081,10.331081 0 0 0 -0.344806,0.263565 l -1.622639,-1.496274 a 12.517437,12.517437 0 0 0 -0.371668,0.324164 z m 3.700544,4.058609 a 7.0251357,7.0251357 0 0 1 8.310222,-0.854216 l -2.164481,1.973518 a 4.3103425,4.3103425 0 0 0 -4.316596,0.886835 4.3103425,4.3103425 0 0 0 -1.278744,4.214861 l -2.166356,1.975229 a 7.0251357,7.0251357 0 0 1 1.615955,-8.196227 z m 4.009819,4.397814 a 1.0736556,1.0736556 0 0 1 1.516828,0.07 1.0736556,1.0736556 0 0 1 -0.07,1.516827 1.0736556,1.0736556 0 0 1 -1.516821,-0.07 1.0736556,1.0736556 0 0 1 0.06999,-1.516828 z m -2.853574,6.838855 2.166355,-1.975228 a 4.3103425,4.3103425 0 0 0 4.314721,-0.885124 4.3103425,4.3103425 0 0 0 1.278744,-4.214861 l 2.166356,-1.975235 a 7.0251357,7.0251357 0 0 1 -1.615956,8.196227 7.0251357,7.0251357 0 0 1 -8.31022,0.854221 z" />
      <path
         id="path5353"
         style="fill:#17705e;stroke-width:0.499998;stroke-linecap:round;stroke-linejoin:round;-inkscape-stroke:none;stop-color:#000000;fill-opacity:1"
         d="M 27.401915,16.530837 27.0173,17.076312 a 4.0324108,4.0324108 0 0 0 -0.282458,0.03698 l -0.512692,-0.426926 -0.230235,0.625905 a 4.0324108,4.0324108 0 0 0 -0.263017,0.109019 l -0.605702,-0.27979 -0.06061,0.664786 a 4.0324108,4.0324108 0 0 0 -0.225661,0.172676 l -0.657544,-0.113215 0.113593,0.657162 a 4.0324108,4.0324108 0 0 0 -0.173058,0.226042 l -0.664785,0.06061 0.280171,0.605702 a 4.0324108,4.0324108 0 0 0 -0.1094,0.263016 l -0.625904,0.230236 0.426926,0.512311 a 4.0324108,4.0324108 0 0 0 -0.03698,0.282458 l -0.545093,0.384615 0.545093,0.384996 a 4.0324108,4.0324108 0 0 0 0.03698,0.282076 l -0.426926,0.512312 0.625904,0.230616 a 4.0324108,4.0324108 0 0 0 0.1094,0.263017 l -0.280171,0.605702 0.664785,0.06061 a 4.0324108,4.0324108 0 0 0 0.173058,0.226042 l -0.113593,0.657161 0.657543,-0.113592 a 4.0324108,4.0324108 0 0 0 0.225661,0.173058 l 0.06061,0.664785 0.605702,-0.280171 a 4.0324108,4.0324108 0 0 0 0.263017,0.1094 l 0.230235,0.625904 0.512692,-0.426926 a 4.0324108,4.0324108 0 0 0 0.282458,0.03698 l 0.384615,0.545474 0.384233,-0.545474 a 4.0324108,4.0324108 0 0 0 0.282458,-0.03698 l 0.512693,0.426926 0.230235,-0.625904 a 4.0324108,4.0324108 0 0 0 0.262636,-0.1094 l 0.606083,0.280171 0.06061,-0.664785 a 4.0324108,4.0324108 0 0 0 0.226042,-0.173058 l 0.657162,0.113592 -0.113593,-0.657161 a 4.0324108,4.0324108 0 0 0 0.173057,-0.226042 l 0.664786,-0.06061 -0.280171,-0.605702 a 4.0324108,4.0324108 0 0 0 0.1094,-0.263017 l 0.625905,-0.230616 -0.426926,-0.512312 a 4.0324108,4.0324108 0 0 0 0.03698,-0.282076 l 0.545474,-0.384996 -0.543568,-0.38309 a 4.0324108,4.0324108 0 0 0 -0.03774,-0.285126 l 0.425783,-0.511168 -0.623618,-0.229473 a 4.0324108,4.0324108 0 0 0 -0.110543,-0.266067 l 0.279027,-0.603414 -0.661736,-0.06023 a 4.0324108,4.0324108 0 0 0 -0.175726,-0.22871 l 0.113212,-0.654875 -0.654875,0.112831 a 4.0324108,4.0324108 0 0 0 -0.22871,-0.175345 l -0.06023,-0.661735 -0.603415,0.278645 A 4.0324108,4.0324108 0 0 0 28.810773,17.30998 L 28.5813,16.686362 28.070514,17.111764 a 4.0324108,4.0324108 0 0 0 -0.285508,-0.03735 z m 0,3.938014 a 0.61933736,0.61933736 0 0 1 0.619043,0.619043 0.61933736,0.61933736 0 0 1 -0.619043,0.619424 0.61933736,0.61933736 0 0 1 -0.619424,-0.619424 0.61933736,0.61933736 0 0 1 0.619424,-0.619043 z" />
      <g
         id="g5343"
         transform="matrix(0.66027403,0.21625519,-0.21625519,0.66027403,72.477943,-115.97471)"
         style="stroke-width:1.43929;fill:#17705e;fill-opacity:1">
        <path
           id="path5339"
           style="fill:#17705e;stroke-width:0.719642;stroke-linecap:round;stroke-linejoin:round;-inkscape-stroke:none;stop-color:#000000;fill-opacity:1"
           inkscape:transform-center-y="-2.3620867e-06"
           d="m 11.83317,163.82423 a 23.666418,23.666418 0 0 0 -0.56689,0.0212 l -0.449585,2.95848 a 20.72485,20.72485 0 0 0 -0.678512,0.0367 l -0.8288896,-2.86494 a 23.666418,23.666418 0 0 0 -1.1244792,0.13591 l -0.059428,3.00291 a 20.72485,20.72485 0 0 0 -0.666626,0.1261 l -1.19941,-2.74041 a 23.666418,23.666418 0 0 0 -1.09399,0.29301 l 0.3317627,2.97294 a 20.72485,20.72485 0 0 0 -0.6407878,0.22428 l -1.5528768,-2.5709 a 23.666418,23.666418 0 0 0 -1.0423136,0.44442 l 0.714685,2.89543 a 20.72485,20.72485 0 0 0 -0.6056477,0.30799 l -1.86861984,-2.33784 a 23.666418,23.666418 0 0 0 -0.98185221,0.5674 l 1.08985595,2.7864 a 20.72485,20.72485 0 0 0 -0.56947428,0.37103 L -2.109648,168.3878 a 23.666418,23.666418 0 0 0 -0.9064046,0.68006 l 1.4500407,2.63033 a 20.72485,20.72485 0 0 0 -0.5146973,0.44287 l -2.4086385,-1.77353 a 23.666418,23.666418 0 0 0 -0.8009847,0.80046 l 1.7740519,2.40916 a 20.72485,20.72485 0 0 0 -0.4433837,0.5147 l -2.6303304,-1.45004 a 23.666418,23.666418 0 0 0 -0.6795451,0.90588 l 2.0665405,2.14974 a 20.72485,20.72485 0 0 0 -0.37052,0.56948 l -2.78691,-1.08986 a 23.666418,23.666418 0 0 0 -0.5674072,0.98185 l 2.3378418,1.86862 a 20.72485,20.72485 0 0 0 -0.3079916,0.60565 l -2.8954305,-0.71468 a 23.666418,23.666418 0 0 0 -0.4444173,1.04231 l 2.5709025,1.55288 a 20.72485,20.72485 0 0 0 -0.2242757,0.64078 l -2.9734618,-0.33176 a 23.666418,23.666418 0 0 0 -0.293005,1.09399 l 2.7404007,1.19941 a 20.72485,20.72485 0 0 0 -0.1260905,0.66714 l -3.0029172,0.0594 a 23.666418,23.666418 0 0 0 -0.135909,1.12448 l 2.8649411,0.82889 a 20.72485,20.72485 0 0 0 -0.03669,0.67851 l -2.9579591,0.44907 a 23.666418,23.666418 0 0 0 -0.02119,0.56689 23.666418,23.666418 0 0 0 0.02119,0.56689 l 2.9579591,0.44959 a 20.72485,20.72485 0 0 0 0.03669,0.67851 l -2.8649411,0.82889 a 23.666418,23.666418 0 0 0 0.135909,1.12448 l 3.0029172,0.0594 a 20.72485,20.72485 0 0 0 0.1260905,0.66714 l -2.7398847,1.19941 a 23.666418,23.666418 0 0 0 0.293006,1.09399 l 2.9729448,-0.33176 a 20.72485,20.72485 0 0 0 0.2242757,0.64078 l -2.5709025,1.55288 a 23.666418,23.666418 0 0 0 0.4444173,1.04231 l 2.8954305,-0.71468 a 20.72485,20.72485 0 0 0 0.3079916,0.60565 l -2.3378418,1.86862 a 23.666418,23.666418 0 0 0 0.5674072,0.98185 l 2.7863932,-1.09037 a 20.72485,20.72485 0 0 0 0.3710368,0.56947 l -2.0665405,2.15026 a 23.666418,23.666418 0 0 0 0.6800618,0.90589 l 2.6303304,-1.45005 a 20.72485,20.72485 0 0 0 0.4423503,0.5147 l -1.7735352,2.40864 a 23.666418,23.666418 0 0 0 0.8009847,0.80098 l 2.4086385,-1.77353 a 20.72485,20.72485 0 0 0 0.5146973,0.44287 l -1.4500407,2.62981 a 23.666418,23.666418 0 0 0 0.9058879,0.68058 l 2.15025632,-2.06654 a 20.72485,20.72485 0 0 0 0.56947428,0.37104 l -1.08985595,2.78639 a 23.666418,23.666418 0 0 0 0.98185221,0.56689 l 1.86810304,-2.33733 a 20.72485,20.72485 0 0 0 0.6061645,0.308 l -0.714685,2.89491 a 23.666418,23.666418 0 0 0 1.0423136,0.44493 l 1.5528768,-2.5709 a 20.72485,20.72485 0 0 0 0.6407878,0.22428 l -0.3317627,2.97294 a 23.666418,23.666418 0 0 0 1.09399,0.29301 l 1.19941,-2.7404 a 20.72485,20.72485 0 0 0 0.666626,0.12609 l 0.059428,3.00291 a 23.666418,23.666418 0 0 0 1.1244792,0.13591 l 0.8288896,-2.86494 a 20.72485,20.72485 0 0 0 0.678512,0.0367 l 0.449585,2.95848 a 23.666418,23.666418 0 0 0 0.56689,0.0212 23.666418,23.666418 0 0 0 0.566891,-0.0212 l 0.449585,-2.95848 a 20.72485,20.72485 0 0 0 0.678511,-0.0367 l 0.82889,2.86494 a 23.666418,23.666418 0 0 0 1.124479,-0.13591 l 0.05943,-3.00291 a 20.72485,20.72485 0 0 0 0.667143,-0.12609 l 1.19941,2.73988 a 23.666418,23.666418 0 0 0 1.09399,-0.29301 l -0.331763,-2.97242 a 20.72485,20.72485 0 0 0 0.640788,-0.22428 l 1.552877,2.5709 a 23.666418,23.666418 0 0 0 1.042314,-0.44493 l -0.714685,-2.89543 a 20.72485,20.72485 0 0 0 0.605647,-0.30748 l 1.868103,2.33733 a 23.666418,23.666418 0 0 0 0.981853,-0.56689 l -1.089856,-2.78639 a 20.72485,20.72485 0 0 0 0.569474,-0.37104 l 2.150256,2.06654 a 23.666418,23.666418 0 0 0 0.905888,-0.68058 l -1.450041,-2.62981 a 20.72485,20.72485 0 0 0 0.514698,-0.44287 l 2.408638,1.77353 a 23.666418,23.666418 0 0 0 0.800985,-0.80098 l -1.773535,-2.40864 a 20.72485,20.72485 0 0 0 0.44235,-0.5147 l 2.63033,1.45005 a 23.666418,23.666418 0 0 0 0.680579,-0.90589 l -2.067057,-2.15026 a 20.72485,20.72485 0 0 0 0.371037,-0.56947 l 2.78691,1.09037 a 23.666418,23.666418 0 0 0 0.56689,-0.98185 l -2.337842,-1.86862 a 20.72485,20.72485 0 0 0 0.307992,-0.60565 l 2.89543,0.71468 a 23.666418,23.666418 0 0 0 0.444934,-1.04231 l -2.570902,-1.55288 a 20.72485,20.72485 0 0 0 0.223759,-0.64078 l 2.972945,0.33176 a 23.666418,23.666418 0 0 0 0.293005,-1.09399 l -2.739884,-1.19941 a 20.72485,20.72485 0 0 0 0.12609,-0.66714 l 3.002918,-0.0594 a 23.666418,23.666418 0 0 0 0.135909,-1.12448 l -2.864942,-0.82889 a 20.72485,20.72485 0 0 0 0.03669,-0.67851 l 2.957959,-0.44907 a 23.666418,23.666418 0 0 0 0.02119,-0.56741 23.666418,23.666418 0 0 0 -0.0072,-0.56482 l -2.959509,-0.44907 a 20.72485,20.72485 0 0 0 -0.04548,-0.68161 l 2.87631,-0.83199 a 23.666418,23.666418 0 0 0 -0.146761,-1.12035 l -2.993099,-0.0594 a 20.72485,20.72485 0 0 0 -0.134359,-0.66972 l 2.742469,-1.20045 a 23.666418,23.666418 0 0 0 -0.291972,-1.0914 l -2.975013,0.33176 a 20.72485,20.72485 0 0 0 -0.220141,-0.64647 l 2.561601,-1.54771 a 23.666418,23.666418 0 0 0 -0.431499,-1.04438 l -2.906282,0.71727 a 20.72485,20.72485 0 0 0 -0.302824,-0.61185 l 2.338359,-1.86914 a 23.666418,23.666418 0 0 0 -0.564824,-0.97927 l -2.787427,1.09038 a 20.72485,20.72485 0 0 0 -0.380338,-0.56741 l 2.074809,-2.15801 a 23.666418,23.666418 0 0 0 -0.687814,-0.89658 l -2.621545,1.44539 a 20.72485,20.72485 0 0 0 -0.450619,-0.51315 l 1.775086,-2.41071 a 23.666418,23.666418 0 0 0 -0.798918,-0.79943 l -2.410705,1.77508 a 20.72485,20.72485 0 0 0 -0.513147,-0.4501 l 1.444873,-2.62154 a 23.666418,23.666418 0 0 0 -0.896586,-0.68833 l -2.158525,2.07481 a 20.72485,20.72485 0 0 0 -0.567407,-0.37983 l 1.090372,-2.78742 a 23.666418,23.666418 0 0 0 -0.978751,-0.56534 l -1.869137,2.33836 a 20.72485,20.72485 0 0 0 -0.611332,-0.30283 l 0.717269,-2.90628 a 23.666418,23.666418 0 0 0 -1.044381,-0.4315 l -1.547709,2.56264 a 20.72485,20.72485 0 0 0 -0.646472,-0.22118 l 0.331763,-2.97501 a 23.666418,23.666418 0 0 0 -1.091923,-0.29146 l -1.199927,2.74247 A 20.72485,20.72485 0 0 0 15.540954,167.1 l -0.05943,-2.99259 a 23.666418,23.666418 0 0 0 -1.120345,-0.14676 l -0.83199,2.8758 a 20.72485,20.72485 0 0 0 -0.681612,-0.045 l -0.449585,-2.96003 a 23.666418,23.666418 0 0 0 -0.564824,-0.007 z m 0,6.22391 A 17.442621,17.442621 0 0 1 29.276033,187.491 17.442621,17.442621 0 0 1 11.83317,204.93335 17.442621,17.442621 0 0 1 -5.6096926,187.491 17.442621,17.442621 0 0 1 11.83317,170.04814 Z"
           transform="translate(17.881295,7.8888065)" />
        <path
           id="path5341"
           style="font-variation-settings:normal;opacity:1;vector-effect:none;fill:#17705e;fill-opacity:1;stroke-width:0.719642;stroke-linecap:round;stroke-linejoin:round;stroke-miterlimit:4;stroke-dasharray:none;stroke-dashoffset:0;stroke-opacity:1;-inkscape-stroke:none;stop-color:#000000;stop-opacity:1"
           d="m 39.420333,180.12699 -7.534941,8.83254 a 6.7774739,6.7774739 0 0 0 -2.170927,-0.35761 6.7774739,6.7774739 0 0 0 -2.086694,0.33228 l -7.505485,-8.79791 a 18.032147,18.032147 0 0 0 -1.995744,1.46606 l 6.054928,9.86865 a 6.7774739,6.7774739 0 0 0 -1.244369,3.90881 6.7774739,6.7774739 0 0 0 0.0036,0.0982 l -10.61899,4.39198 a 18.032147,18.032147 0 0 0 0.790649,2.3766 l 11.253577,-2.70888 a 6.7774739,6.7774739 0 0 0 3.240629,2.27997 l 0.90072,11.52487 a 18.032147,18.032147 0 0 0 1.259871,0.047 18.032147,18.032147 0 0 0 1.260388,-0.047 l 0.903305,-11.56312 a 6.7774739,6.7774739 0 0 0 3.148128,-2.26291 l 11.34246,2.73007 a 18.032147,18.032147 0 0 0 0.791683,-2.3766 L 36.489762,195.4351 a 6.7774739,6.7774739 0 0 0 0.0021,-0.0553 6.7774739,6.7774739 0 0 0 -1.187007,-3.83078 l 6.109188,-9.9565 a 18.032147,18.032147 0 0 0 -1.993677,-1.46554 z m -9.705868,12.57598 a 2.6763787,2.6763787 0 0 1 2.676323,2.67684 2.6763787,2.6763787 0 0 1 -2.676323,2.67632 2.6763787,2.6763787 0 0 1 -2.676322,-2.67632 2.6763787,2.6763787 0 0 1 2.676322,-2.67684 z" />
      </g>
      <g
         id="g5349"
         transform="matrix(0.45567575,-0.21925094,0.21925094,0.45567575,-70.184889,-20.539046)"
         style="stroke-width:1.97754;fill:#17705e;fill-opacity:1">
        <path
           id="path5345"
           style="fill:#17705e;stroke-width:0.988764;stroke-linecap:round;stroke-linejoin:round;-inkscape-stroke:none;stop-color:#000000;fill-opacity:1"
           d="m 78.323809,161.29 a 22.083418,22.083418 0 0 0 -1.127579,0.0419 l -0.391708,2.09755 a 20.003096,20.003096 0 0 0 -3.28352,0.53795 l -1.033529,-1.87637 a 22.083418,22.083418 0 0 0 -2.761588,0.95705 l 0.351399,2.11666 a 20.003096,20.003096 0 0 0 -2.907316,1.61282 l -1.612305,-1.40921 a 22.083418,22.083418 0 0 0 -2.271695,1.83451 l 1.06195,1.88257 a 20.003096,20.003096 0 0 0 -2.171443,2.51199 l -2.013314,-0.77928 a 22.083418,22.083418 0 0 0 -1.491382,2.51148 l 1.623673,1.39061 a 20.003096,20.003096 0 0 0 -1.175638,3.1104 l -2.145089,-0.0434 a 22.083418,22.083418 0 0 0 -0.551904,2.87011 l 2.011246,0.75447 a 20.003096,20.003096 0 0 0 -0.10852,1.96164 20.003096,20.003096 0 0 0 0.05064,1.36167 l -2.0283,0.69195 a 22.083418,22.083418 0 0 0 0.453202,2.88458 l 2.162659,0.0217 a 20.003096,20.003096 0 0 0 1.088305,3.13573 l -1.682067,1.35496 a 22.083418,22.083418 0 0 0 1.429886,2.54661 l 2.014865,-0.71055 a 20.003096,20.003096 0 0 0 2.106331,2.57452 l -1.11001,1.83503 a 22.083418,22.083418 0 0 0 2.209684,1.91306 l 1.658297,-1.36374 a 20.003096,20.003096 0 0 0 2.849955,1.71256 l -0.414445,2.10064 a 22.083418,22.083418 0 0 0 2.724382,1.05007 l 1.098641,-1.85932 a 20.003096,20.003096 0 0 0 3.262333,0.62632 l 0.331246,2.1301 a 22.083418,22.083418 0 0 0 1.792655,0.0775 22.083418,22.083418 0 0 0 1.128097,-0.0419 l 0.39119,-2.09652 a 20.003096,20.003096 0 0 0 3.285071,-0.53743 l 1.032495,1.87482 a 22.083418,22.083418 0 0 0 2.761589,-0.95705 l -0.350883,-2.11305 a 20.003096,20.003096 0 0 0 2.910933,-1.61282 l 1.608171,1.4056 a 22.083418,22.083418 0 0 0 2.271696,-1.83451 l -1.05885,-1.87637 a 20.003096,20.003096 0 0 0 2.175578,-2.51561 l 2.006079,0.7767 a 22.083418,22.083418 0 0 0 1.491382,-2.51148 l -1.616439,-1.38441 a 20.003096,20.003096 0 0 0 1.177706,-3.11661 l 2.135787,0.0434 a 22.083418,22.083418 0 0 0 0.551912,-2.87011 l -2.001953,-0.75137 a 20.003096,20.003096 0 0 0 0.10852,-1.96474 20.003096,20.003096 0 0 0 -0.05116,-1.36478 l 2.028823,-0.69194 a 22.083418,22.083418 0 0 0 -0.462511,-2.88148 l -2.153357,-0.0212 a 20.003096,20.003096 0 0 0 -1.090889,-3.14244 l 1.67845,-1.35134 a 22.083418,22.083418 0 0 0 -1.421618,-2.54817 l -2.018998,0.71211 a 20.003096,20.003096 0 0 0 -2.109949,-2.57762 l 1.113627,-1.84123 a 22.083418,22.083418 0 0 0 -2.206584,-1.90945 l -1.663981,1.36839 a 20.003096,20.003096 0 0 0 -2.853572,-1.71359 l 0.415478,-2.10581 a 22.083418,22.083418 0 0 0 -2.726965,-1.03921 l -1.096574,1.85621 a 20.003096,20.003096 0 0 0 -3.2644,-0.62528 l -0.331763,-2.13321 A 22.083418,22.083418 0 0 0 78.323809,161.29 Z m 0.0052,4.96094 a 17.12265,17.12265 0 0 1 17.122469,17.12247 17.12265,17.12265 0 0 1 -17.122469,17.12247 17.12265,17.12265 0 0 1 -17.122986,-17.12247 17.12265,17.12265 0 0 1 17.122986,-17.12247 z" />
        <path
           id="path5347"
           style="font-variation-settings:normal;opacity:1;vector-effect:none;fill:#17705e;fill-opacity:1;stroke-width:0.988764;stroke-linecap:round;stroke-linejoin:round;stroke-miterlimit:4;stroke-dasharray:none;stroke-dashoffset:0;stroke-opacity:1;-inkscape-stroke:none;stop-color:#000000;stop-opacity:1"
           inkscape:transform-center-x="2.4705436"
           inkscape:transform-center-y="-1.454508"
           d="m 85.573513,165.94923 a 18.566561,18.566561 0 0 0 -2.105922,-0.71429 l -6.223676,11.85323 a 6.4064751,6.4064751 0 0 0 -4.327939,2.9783 l -13.004328,2.93444 a 18.566561,18.566561 0 0 0 0.561091,4.61121 l 12.707969,-0.51003 a 6.4064751,6.4064751 0 0 0 2.762405,2.20319 6.4064751,6.4064751 0 0 0 3.632176,0.37419 l 8.553883,9.26545 a 18.566561,18.566561 0 0 0 3.67538,-2.92466 l -7.143991,-11.30203 a 6.4064751,6.4064751 0 0 0 -0.826343,-4.7149 l 4.019985,-12.91899 a 18.566561,18.566561 0 0 0 -2.28069,-1.13511 z m -6.068404,14.75382 a 3.0751078,3.0751078 0 0 1 1.664787,4.01783 3.0751078,3.0751078 0 0 1 -4.017837,1.66479 3.0751078,3.0751078 0 0 1 -1.664782,-4.01784 3.0751078,3.0751078 0 0 1 4.017832,-1.66478 z" />
      </g>
      <use
         x="0"
         y="0"
         xlink:href="#path5291"
         id="use7323"
         transform="matrix(0.25877688,0.66158729,-0.66158729,0.25877688,45.213349,-10.860158)"
         style="stroke-width:1.40766" />
      <use
         x="0"
         y="0"
         xlink:href="#g5349"
         id="use7325"
         transform="matrix(0.62045157,0.28406521,-0.28406521,0.62045157,38.893335,4.9882036)"
         style="stroke-width:1.46544" />
      <use
         x="0"
         y="0"
         xlink:href="#g5349"
         id="use7327"
         transform="matrix(0.34587883,-0.04602332,0.04602332,0.34587883,17.531603,29.597331)"
         style="stroke-width:2.86592" />
      <use
         x="0"
         y="0"
         xlink:href="#g5349"
         id="use7329"
         transform="matrix(0.43751651,-0.34172115,0.34172115,0.43751651,25.422189,24.193246)"
         style="stroke-width:1.8013" />
      <use
         x="0"
         y="0"
         xlink:href="#path5353"
         id="use7331"
         transform="matrix(0.74079383,0,0,0.74079383,10.331411,-4.5348735)"
         style="stroke-width:1.3499" />
      <use
         x="0"
         y="0"
         xlink:href="#path5353"
         id="use7333"
         transform="matrix(1.1555065,0,0,1.1555065,24.324247,17.431322)"
         style="stroke-width:0.865419" />
      <use
         x="0"
         y="0"
         xlink:href="#g5343"
         id="use7335"
         transform="matrix(0.66655744,0.0607549,-0.0607549,0.66655744,-26.531319,-13.786141)"
         style="stroke-width:1.49405" />
      <use
         x="0"
         y="0"
         xlink:href="#g5343"
         id="use7337"
         transform="matrix(0.61791582,-0.18623642,0.18623642,0.61791582,18.573242,56.722467)"
         style="stroke-width:1.54949" />
      <use
         x="0"
         y="0"
         xlink:href="#path5353"
         id="use7339"
         transform="matrix(0.60757053,0,0,0.60757053,24.909911,38.748329)"
         style="stroke-width:1.6459" />
      <use
         x="0"
         y="0"
         xlink:href="#g5343"
         id="use7341"
         transform="matrix(0.29593959,0.16096718,-0.16096718,0.29593959,8.8676396,-2.8700773)"
         style="stroke-width:2.96838" />
      <use
         x="0"
         y="0"
         xlink:href="#path5291"
         id="use7343"
         transform="matrix(-0.22994382,0.20178841,-0.20178841,-0.22994382,86.764554,38.99449)"
         style="stroke-width:3.26872" />
      <use
         x="0"
         y="0"
         xlink:href="#path5353"
         id="use7345"
         transform="matrix(0.60757053,0,0,0.60757053,53.039204,3.7384897)"
         style="stroke-width:1.6459" />
    </g>
    <use
       x="0"
       y="0"
       xlink:href="#g5372"
       id="use5374"
       transform="translate(67.733334)" />
    <use
       x="0"
       y="0"
       xlink:href="#g5372"
       id="use5376"
       transform="translate(-3.0161497e-7,67.733333)" />
    <use
       x="0"
       y="0"
       xlink:href="#g5372"
       id="use5378"
       transform="translate(67.733334,67.733333)" />
  </g>
</svg>
