<?xml version="1.0" encoding="UTF-8" standalone="no"?>
<!-- Created with Inkscape (http://www.inkscape.org/) -->

<svg
   width="122.5583mm"
   height="122.5583mm"
   viewBox="0 0 122.5583 122.5583"
   version="1.1"
   id="svg5"
   inkscape:version="1.2.2 (b0a8486, 2022-12-01)"
   sodipodi:docname="nettie-silhouette.svg"
   inkscape:export-filename="nettie-silhouette-plain.svg"
   inkscape:export-xdpi="96"
   inkscape:export-ydpi="96"
   xmlns:inkscape="http://www.inkscape.org/namespaces/inkscape"
   xmlns:sodipodi="http://sodipodi.sourceforge.net/DTD/sodipodi-0.dtd"
   xmlns="http://www.w3.org/2000/svg"
   xmlns:svg="http://www.w3.org/2000/svg">
  <sodipodi:namedview
     id="namedview7"
     pagecolor="#ffffff"
     bordercolor="#000000"
     borderopacity="0.25"
     inkscape:showpageshadow="2"
     inkscape:pageopacity="0.0"
     inkscape:pagecheckerboard="0"
     inkscape:deskcolor="#d1d1d1"
     inkscape:document-units="mm"
     showgrid="false"
     inkscape:zoom="0.46247291"
     inkscape:cx="-70.274386"
     inkscape:cy="247.58207"
     inkscape:window-width="1280"
     inkscape:window-height="747"
     inkscape:window-x="0"
     inkscape:window-y="25"
     inkscape:window-maximized="0"
     inkscape:current-layer="layer1" />
  <defs
     id="defs2">
    <inkscape:path-effect
       effect="bspline"
       id="path-effect2005"
       is_visible="true"
       lpeversion="1"
       weight="33.333333"
       steps="2"
       helper_size="0"
       apply_no_weight="true"
       apply_with_weight="true"
       only_selected="false" />
    <inkscape:path-effect
       effect="bspline"
       id="path-effect660"
       is_visible="true"
       lpeversion="1"
       weight="33.333333"
       steps="2"
       helper_size="0"
       apply_no_weight="true"
       apply_with_weight="true"
       only_selected="false" />
    <inkscape:path-effect
       effect="bspline"
       id="path-effect656"
       is_visible="true"
       lpeversion="1"
       weight="33.333333"
       steps="2"
       helper_size="0"
       apply_no_weight="true"
       apply_with_weight="true"
       only_selected="false" />
    <inkscape:path-effect
       effect="bspline"
       id="path-effect652"
       is_visible="true"
       lpeversion="1"
       weight="33.333333"
       steps="2"
       helper_size="0"
       apply_no_weight="true"
       apply_with_weight="true"
       only_selected="false" />
    <inkscape:path-effect
       effect="bspline"
       id="path-effect644"
       is_visible="true"
       lpeversion="1"
       weight="33.333333"
       steps="2"
       helper_size="0"
       apply_no_weight="true"
       apply_with_weight="true"
       only_selected="false" />
    <inkscape:path-effect
       effect="bspline"
       id="path-effect638"
       is_visible="true"
       lpeversion="1"
       weight="33.333333"
       steps="2"
       helper_size="0"
       apply_no_weight="true"
       apply_with_weight="true"
       only_selected="false" />
    <inkscape:path-effect
       effect="bspline"
       id="path-effect634"
       is_visible="true"
       lpeversion="1"
       weight="33.333333"
       steps="2"
       helper_size="0"
       apply_no_weight="true"
       apply_with_weight="true"
       only_selected="false" />
    <inkscape:path-effect
       effect="bspline"
       id="path-effect630"
       is_visible="true"
       lpeversion="1"
       weight="33.333333"
       steps="2"
       helper_size="0"
       apply_no_weight="true"
       apply_with_weight="true"
       only_selected="false" />
    <inkscape:path-effect
       effect="bspline"
       id="path-effect626"
       is_visible="true"
       lpeversion="1"
       weight="33.333333"
       steps="2"
       helper_size="0"
       apply_no_weight="true"
       apply_with_weight="true"
       only_selected="false" />
    <inkscape:path-effect
       effect="bspline"
       id="path-effect622"
       is_visible="true"
       lpeversion="1"
       weight="33.333333"
       steps="2"
       helper_size="0"
       apply_no_weight="true"
       apply_with_weight="true"
       only_selected="false" />
    <inkscape:path-effect
       effect="bspline"
       id="path-effect618"
       is_visible="true"
       lpeversion="1"
       weight="33.333333"
       steps="2"
       helper_size="0"
       apply_no_weight="true"
       apply_with_weight="true"
       only_selected="false" />
    <inkscape:path-effect
       effect="bspline"
       id="path-effect614"
       is_visible="true"
       lpeversion="1"
       weight="33.333333"
       steps="2"
       helper_size="0"
       apply_no_weight="true"
       apply_with_weight="true"
       only_selected="false" />
    <inkscape:path-effect
       effect="bspline"
       id="path-effect502"
       is_visible="true"
       lpeversion="1"
       weight="33.333333"
       steps="2"
       helper_size="0"
       apply_no_weight="true"
       apply_with_weight="true"
       only_selected="false" />
    <inkscape:path-effect
       effect="bspline"
       id="path-effect238"
       is_visible="true"
       lpeversion="1"
       weight="33.333333"
       steps="2"
       helper_size="0"
       apply_no_weight="true"
       apply_with_weight="true"
       only_selected="false" />
  </defs>
  <g
     inkscape:label="Layer 1"
     inkscape:groupmode="layer"
     id="layer1"
     transform="translate(-5.1065955,-97.025314)">
    <rect
       style="font-variation-settings:normal;opacity:1;vector-effect:none;fill:none;fill-opacity:1;stroke:none;stroke-width:0.499999;stroke-linecap:round;stroke-linejoin:round;stroke-miterlimit:4;stroke-dasharray:none;stroke-dashoffset:0;stroke-opacity:1;-inkscape-stroke:none;stop-color:#000000;stop-opacity:1"
       id="rect2817"
       width="122.5583"
       height="122.5583"
       x="5.1065955"
       y="97.025314"
       rx="2.0401278"
       ry="2.0401282" />
    <path
       style="fill:#932c3e;fill-opacity:1;stroke:none;stroke-width:0.5;stroke-linecap:round;stroke-linejoin:round;stop-color:#000000"
       d="m 66.849505,117.81615 c 2.89386,-4.48884 6.7796,-8.96176 11.730037,-11.3099 4.950437,-2.34813 10.964969,-2.57146 15.601245,-0.22619 4.636276,2.34527 7.894193,7.25859 9.684873,12.37053 1.79069,5.11194 2.11445,10.42282 3.49615,16.44771 1.3817,6.02489 3.82096,12.76275 0.52637,17.62109 -3.29459,4.85834 -12.322681,7.83662 -20.094828,8.28876 -7.772146,0.45214 -14.287831,-1.62208 -18.685511,-6.9921 -4.39768,-5.37002 -6.676725,-14.03565 -6.865394,-20.62111 -0.188668,-6.58546 1.713198,-11.08995 4.607058,-15.57879 z"
       id="path628"
       inkscape:path-effect="#path-effect630"
       inkscape:original-d="m 65.857624,117.80023 c 3.886023,-4.47268 7.771763,-8.9456 11.657218,-13.41876 6.015151,-0.22298 12.029682,-0.44632 18.043946,-0.67 3.258387,4.91379 6.516252,9.82714 9.773802,14.74005 0.32401,5.31099 0.64776,10.62188 0.97127,15.93275 2.4398,6.73887 4.87906,13.47673 7.31831,20.21502 -9.02848,2.97876 -18.056567,5.95704 -27.085356,8.9352 -6.515659,-2.07404 -13.031345,-4.14826 -19.547614,-6.22285 -2.278856,-8.66566 -4.557902,-17.33129 -6.837318,-25.9976 1.902216,-4.50443 3.804083,-9.00892 5.705742,-13.51381 z"
       sodipodi:nodetypes="cccccccccc" />
    <path
       style="fill:#333344;fill-opacity:1;stroke:none;stroke-width:0.499999;stroke-linecap:round;stroke-linejoin:round;stop-color:#000000"
       d="m 68.226069,145.15169 c -4.11245,3.12632 -7.963958,12.58941 -12.194428,25.46079 -4.230469,12.87137 -8.839432,29.14959 -9.92777,37.7717 -1.088339,8.62211 1.343612,9.58763 6.853889,4.1578 5.510277,-5.42983 14.098237,-17.25388 19.299068,-29.00247 5.200831,-11.74859 7.013709,-23.42014 5.733967,-30.86178 -1.279743,-7.44163 -5.652275,-10.65237 -9.764726,-7.52604 z"
       id="path236"
       inkscape:path-effect="#path-effect238"
       inkscape:original-d="m 67.965416,138.81421 c -3.851479,9.46393 -7.702986,18.92702 -11.555005,28.39045 -4.608925,16.27928 -9.217887,32.55749 -13.827255,48.83594 2.432322,0.96583 4.864272,1.93135 7.296143,2.89667 8.589037,-11.8249 17.176997,-23.64895 25.765393,-35.47423 1.813266,-11.67207 3.626144,-23.34362 5.43888,-35.01622 -4.372553,-3.21068 -8.745086,-6.42141 -13.118156,-9.63261 z"
       sodipodi:nodetypes="ccccccc" />
    <path
       style="fill:#333344;fill-opacity:1;stroke:none;stroke-width:0.499999;stroke-linecap:round;stroke-linejoin:round;stop-color:#000000"
       d="m 79.070147,151.78263 c 3.303363,4.30639 6.043088,12.22377 7.593427,23.64657 1.550339,11.42281 1.911011,26.34528 0.738234,34.22765 -1.172778,7.88237 -3.878062,8.71727 -8.041025,1.24267 -4.162963,-7.4746 -9.782118,-23.2576 -12.534867,-33.67114 -2.75275,-10.41354 -2.638529,-15.45617 -1.959749,-19.75142 0.67878,-4.29526 1.922167,-7.84303 4.477714,-9.26944 2.555546,-1.4264 6.422902,-0.73128 9.726266,3.57511 z"
       id="path498"
       inkscape:path-effect="#path-effect502"
       inkscape:original-d="m 79.63366,148.17128 c 2.740005,7.91768 5.47973,15.83506 8.219453,23.75294 0.361058,14.92778 0.72173,29.85025 1.082314,44.77976 -2.706298,0.83556 -5.411582,1.67046 -8.117955,2.50534 -5.6195,-15.78445 -11.238656,-31.56745 -16.858525,-47.35198 0.114489,-5.04249 0.22871,-10.08512 0.342668,-15.12803 1.24365,-3.5475 2.487038,-7.09527 3.73018,-10.64336 3.867595,0.69538 7.73495,1.3905 11.601865,2.08533 z"
       sodipodi:nodetypes="cccccccc" />
    <path
       style="fill:#333344;fill-opacity:1;stroke:none;stroke-width:0.499999;stroke-linecap:round;stroke-linejoin:round;stop-color:#000000"
       d="m 50.592478,179.00306 c 9.195998,3.30641 27.363225,6.94576 37.406048,7.4974 10.042822,0.55164 11.960519,-1.98439 9.447627,-6.60123 -2.512892,-4.61684 -9.456041,-11.31354 -15.525456,-14.99143 -6.069415,-3.6779 -11.264302,-4.33611 -17.947151,-3.02592 -6.682848,1.31019 -10.716321,2.92875 -16.701868,7.63786 -5.985546,4.70911 -5.875198,6.17691 3.3208,9.48332 z"
       id="path612"
       inkscape:path-effect="#path-effect614"
       inkscape:original-d="m 41.620005,178.66986 c 18.16843,3.63981 36.335657,7.27917 54.503515,10.91844 1.918124,-2.53598 3.835822,-5.07201 5.75349,-7.60862 -6.943756,-6.69728 -13.886902,-13.39399 -20.830946,-20.09157 -5.194811,-0.65798 -10.389697,-1.3162 -15.584932,-1.97469 -8.170306,3.27897 -12.203779,4.89753 -24.511752,9.83613 0.336995,4.47928 0.447344,5.94708 0.670625,8.92031 z"
       sodipodi:nodetypes="ccccccc" />
    <path
       style="fill:#333344;fill-opacity:1;stroke:none;stroke-width:0.499999;stroke-linecap:round;stroke-linejoin:round;stop-color:#000000"
       d="m 62.56038,158.52984 c -2.49592,-1.75726 -1.283678,-3.5378 -1.504997,-6.65009 -0.221319,-3.1123 -1.876512,-7.55577 -5.124067,-15.25948 -3.247556,-7.70371 -8.087847,-18.66845 -9.354378,-24.8828 -1.266531,-6.21436 1.040594,-7.67853 4.289138,-5.55898 3.248543,2.11956 7.438401,7.82246 10.634663,14.04993 3.196263,6.22747 5.398665,12.97859 7.889365,16.78258 2.4907,3.80399 5.268754,4.65996 9.051169,6.6506 3.782414,1.99065 8.568621,5.11559 12.970077,8.62623 4.401456,3.51065 8.417966,7.40679 11.47082,11.89043 3.05286,4.48363 5.14267,9.55532 5.40366,12.62969 0.26099,3.07438 -1.30657,4.15119 -5.21002,1.31367 -3.903463,-2.83752 -10.141634,-9.58884 -14.799916,-12.63619 -4.658283,-3.04735 -7.736073,-2.38988 -12.376629,-2.92765 C 71.258709,162.02 65.056299,160.2871 62.56038,158.52984 Z"
       id="path616"
       inkscape:path-effect="#path-effect618"
       inkscape:original-d="m 58.85187,158.55364 c 1.212894,-1.78085 2.425136,-3.56139 3.637414,-5.34264 -1.655074,-4.4436 -3.310267,-8.88708 -4.965723,-13.33081 -4.83968,-10.96368 -9.67997,-21.92842 -14.520289,-32.89289 2.307329,-1.46388 4.614454,-2.92806 6.921253,-4.39246 4.190141,5.70318 8.38,11.40607 12.569738,17.1089 2.2029,6.7521 4.405302,13.50322 6.607764,20.25507 2.778726,0.85635 5.556781,1.71231 8.33486,2.5681 4.786758,3.1254 9.572963,6.25035 14.359198,9.37522 4.016716,3.89635 8.033227,7.79249 12.049105,11.68801 2.08997,5.0717 4.17978,10.14338 6.26948,15.21518 -1.56764,1.07731 -3.1352,2.15412 -4.70339,3.23092 -6.238923,-6.75215 -12.47709,-13.50347 -18.716038,-20.2556 -3.077566,0.65774 -6.155357,1.31521 -9.233482,1.97244 -6.203101,-1.7329 -12.40551,-3.4658 -18.60989,-5.19944 z"
       sodipodi:nodetypes="ccccccccccccccc" />
    <path
       style="fill:#333344;fill-opacity:1;stroke:none;stroke-width:0.5;stroke-linecap:round;stroke-linejoin:round;stop-color:#000000"
       d="m 74.666402,140.93977 c -4.700495,-3.42383 -6.789538,-10.1712 -5.15747,-16.51601 1.632068,-6.34481 6.985143,-12.28639 13.448403,-12.78972 6.463261,-0.50333 14.035914,4.43121 16.059399,10.8261 2.023486,6.39488 -1.501707,14.24985 -6.920014,18.12701 -5.418307,3.87716 -12.729824,3.77646 -17.430318,0.35262 z"
       id="path624"
       inkscape:path-effect="#path-effect626"
       inkscape:original-d="m 72.054828,144.2629 c -2.088645,-6.74705 -4.177689,-13.49441 -6.267138,-20.24211 5.353688,-5.9415 10.706763,-11.88308 16.05954,-17.82509 7.573346,4.93504 15.145989,9.8696 22.71838,14.80391 -3.52494,7.85561 -7.050135,15.71058 -10.575799,23.5654 -7.311403,-0.10031 -14.622919,-0.2011 -21.934983,-0.30211 z" />
    <path
       id="path636"
       style="fill:#333344;fill-opacity:1;stroke:none;stroke-width:0.499999;stroke-linecap:round;stroke-linejoin:round;stop-color:#000000"
       d="m 25.694196,144.5198 c -2.22045,0.44227 -4.279034,1.29957 -5.934289,2.60663 -4.815282,3.80238 -6.217029,11.40966 -3.233843,16.96912 2.983189,5.55947 10.351202,9.07045 16.752885,8.22507 6.401682,-0.84537 11.836655,-6.0469 12.96758,-11.60456 1.130926,-5.55767 -2.042496,-11.47174 -7.743059,-14.43046 -3.740994,-1.94167 -8.570233,-2.61014 -12.809274,-1.7658 z m 3.49723,9.50581 c 1.261023,-0.25117 2.697656,-0.0523 3.810525,0.52528 1.695794,0.88016 2.639992,2.63937 2.303566,4.29266 -0.336423,1.65329 -1.953459,3.20082 -3.857821,3.45231 -1.904363,0.25148 -4.096168,-0.7931 -4.983601,-2.44692 -0.887432,-1.65382 -0.470369,-3.9171 0.962076,-5.04822 0.492402,-0.38882 1.104719,-0.64354 1.765255,-0.77511 z"
       sodipodi:nodetypes="scsssssscsssss" />
    <path
       id="path646"
       style="fill:#333344;fill-opacity:1;stroke:none;stroke-width:0.499999;stroke-linecap:round;stroke-linejoin:round;stop-color:#000000"
       d="m 31.891224,121.99983 c -2.220449,0.44227 -4.279035,1.29956 -5.934289,2.60663 -4.815285,3.80237 -6.217031,11.40966 -3.233843,16.96912 2.983187,5.55946 10.351202,9.07045 16.752886,8.22507 6.401682,-0.84537 11.836656,-6.0469 12.967578,-11.60457 1.130924,-5.55767 -2.042493,-11.47173 -7.743059,-14.43046 -3.740995,-1.94167 -8.570234,-2.61013 -12.809273,-1.76579 z m 3.470541,9.44065 c 1.280898,-0.25513 2.740175,-0.0532 3.87058,0.53354 1.722521,0.89403 2.6816,2.68097 2.339873,4.36032 -0.341728,1.67934 -1.984245,3.25128 -3.918623,3.50673 -1.934378,0.25544 -4.160724,-0.80561 -5.062146,-2.48549 -0.901422,-1.6799 -0.477783,-3.97883 0.977237,-5.12779 0.500166,-0.39494 1.122132,-0.65368 1.793079,-0.78731 z"
       sodipodi:nodetypes="scssssscsssscc" />
    <path
       style="font-variation-settings:normal;opacity:1;vector-effect:none;fill:#333344;fill-opacity:1;stroke:none;stroke-width:0.499999;stroke-linecap:round;stroke-linejoin:round;stroke-miterlimit:4;stroke-dasharray:none;stroke-dashoffset:0;stroke-opacity:1;-inkscape-stroke:none;stop-color:#000000;stop-opacity:1"
       d="m 76.63344,132.68222 c 2.805002,-2.70971 4.801612,-1.80648 5.348152,2.73365 0.546541,4.54014 -0.35667,12.71657 -3.161373,15.42634 -2.804702,2.70976 -7.510901,-0.0474 -8.057797,-4.58754 -0.546896,-4.54014 3.066016,-10.86274 5.871018,-13.57245 z"
       id="path2003"
       inkscape:path-effect="#path-effect2005"
       inkscape:original-d="m 77.441472,129.06912 c 1.996916,0.90351 3.993525,1.80674 5.989951,2.70974 -0.903001,8.17718 -1.806211,16.35361 -2.70974,24.53026 -4.706217,-2.75706 -9.412414,-5.51423 -14.119163,-8.27183 3.613323,-6.32258 7.226231,-12.64518 10.838952,-18.96817 z"
       sodipodi:nodetypes="ccccc" />
    <rect
       style="font-variation-settings:normal;opacity:1;vector-effect:none;fill:#333344;fill-opacity:1;stroke:none;stroke-width:0.499999;stroke-linecap:round;stroke-linejoin:round;stroke-miterlimit:4;stroke-dasharray:none;stroke-dashoffset:0;stroke-opacity:1;-inkscape-stroke:none;stop-color:#000000;stop-opacity:1"
       id="rect4826"
       width="39.672504"
       height="11.901752"
       x="69.748154"
       y="128.60431"
       rx="0"
       ry="0"
       transform="rotate(14.03971)" />
  </g>
</svg>
